PathFileType	4	(X/Y/Z)	D:\MotionData\NordSprintingStudy\Test 2\Edited\JustTheBoards000001.trc
DataRate	CameraRate	NumFrames	NumMarkers	Units	OrigDataRate	OrigDataStartFrame	OrigNumFrames
200.00	200.00	       30	5	mm	200.00	313	       624
Frame#	Time	M1			M2			M3			M4			M5			
		X1	Y1	Z1	X2	Y2	Z2	X3	Y3	Z3	X4	Y4	Z4	X5	Y5	Z5	

313	1.560	917.06451	1916.82861	47.54235	901.01447	2236.83862	59.06438	1100.76550	2247.59375	57.99364	1500.33167	2268.00659	58.48240	1515.94983	1946.80872	47.61292	
314	1.565	917.04047	1916.82104	47.51990	901.08179	2236.87354	59.01887	1100.68152	2247.52490	58.09182	1500.32214	2267.98193	58.50827	1515.95813	1946.81921	47.55538	
315	1.570	916.96906	1916.79480	47.66705	901.00830	2236.87549	59.07027	1100.70679	2247.57349	58.05088	1500.26208	2267.97266	58.54086	1515.90369	1946.79333	47.65072	
316	1.575	917.01483	1916.82556	47.59615	901.06927	2236.88794	59.01599	1100.68176	2247.56787	58.06773	1500.22388	2267.97461	58.54325	1515.94995	1946.80188	47.57893	
317	1.580	917.00092	1916.84045	47.56564	901.01617	2236.85156	59.09795	1100.73145	2247.59692	58.02591	1500.13135	2267.92920	58.64645	1515.91602	1946.82190	47.57796	
318	1.585	917.02527	1916.80432	47.56396	900.97748	2236.84424	59.14315	1100.64807	2247.56958	58.10359	1500.08740	2267.94141	58.70926	1515.89978	1946.79065	47.60016	
319	1.590	916.96942	1916.80920	47.58938	901.05054	2236.89966	59.04207	1100.58081	2247.50513	58.17479	1500.19971	2267.93604	58.56612	1515.89270	1946.81140	47.63161	
320	1.595	916.94305	1916.78149	47.67082	900.98474	2236.84375	59.07976	1100.65662	2247.53711	58.08407	1500.16772	2267.95142	58.59076	1515.87866	1946.79663	47.64342	
321	1.600	917.03156	1916.82300	47.53941	901.02966	2236.84497	59.02466	1100.72314	2247.54712	58.01614	1500.09778	2267.90527	58.69720	1515.95349	1946.81714	47.56384	
322	1.605	917.02277	1916.80603	47.56983	901.00330	2236.85840	59.06115	1100.66602	2247.56519	58.07071	1500.22290	2267.96411	58.53521	1515.93787	1946.81628	47.56114	
323	1.610	917.07501	1916.81616	47.45681	900.99390	2236.83325	59.07137	1100.71875	2247.57202	58.02252	1500.17615	2267.94458	58.57928	1515.93994	1946.81372	47.54018	
324	1.615	917.07330	1916.81958	47.45781	901.05359	2236.85645	59.00210	1100.68274	2247.55225	58.02610	1500.28296	2267.99170	58.43744	1515.98694	1946.83728	47.50410	
325	1.620	917.07654	1916.83496	47.49486	901.01160	2236.87402	59.04694	1100.80652	2247.60327	57.93369	1500.36511	2268.00244	58.42594	1515.94153	1946.82715	47.54987	
326	1.625	917.18585	1916.87146	47.44947	901.14594	2236.86694	58.87303	1100.78662	2247.59009	57.94538	1500.38037	2268.02393	58.35242	1516.04858	1946.84082	47.43261	
327	1.630	917.20673	1916.87488	47.50487	901.18073	2236.90234	58.80763	1100.87085	2247.60962	57.81538	1500.39856	2268.05176	58.32998	1516.07446	1946.85559	47.41518	
328	1.635	917.26471	1916.80664	47.39695	901.18512	2236.86230	58.78774	1100.85303	2247.60132	57.82768	1500.40906	2268.03174	58.35299	1516.13477	1946.88428	47.34993	
329	1.640	917.31415	1916.78625	47.33172	901.15198	2236.91333	58.83300	1100.91516	2247.61890	57.73386	1500.50757	2268.08887	58.25858	1516.11890	1946.87158	47.34883	
330	1.645	917.47260	1916.77039	47.40800	901.15497	2236.93701	58.88074	1100.89819	2247.59668	57.79719	1500.46265	2268.05981	58.33389	1516.11780	1946.87793	47.35712	
331	1.650	917.20947	1916.84900	47.27497	901.21881	2236.96265	58.80037	1100.85034	2247.63037	57.82450	1500.50598	2268.06372	58.20355	1516.13525	1946.88000	47.33958	
332	1.655	917.26685	1916.85730	47.21156	901.16144	2236.90527	58.87185	1100.94299	2247.61450	57.77527	1500.45911	2268.04053	58.32605	1516.15942	1946.88599	47.31302	
333	1.660	917.26495	1916.85718	47.23808	901.18964	2236.91187	58.84409	1100.92004	2247.63843	57.76934	1500.52148	2268.08569	58.24654	1516.15735	1946.88257	47.31683	
334	1.665	917.25592	1916.85474	47.26083	901.13544	2236.82983	58.90170	1100.93872	2247.63696	57.74752	1500.45081	2268.07324	58.32910	1516.13086	1946.86316	47.38705	
335	1.670	917.24323	1916.84473	47.30564	901.22083	2236.89502	58.81378	1100.82227	2247.59009	57.89144	1500.51050	2268.07568	58.26770	1516.16589	1946.89246	47.35169	
336	1.675	917.21857	1916.85645	47.33313	901.19141	2236.90039	58.85984	1100.90405	2247.62183	57.80540	1500.48474	2268.07739	58.33387	1516.14612	1946.85974	47.38551	
337	1.680	917.15509	1916.80811	47.42985	901.14960	2236.91504	58.95695	1100.85217	2247.58032	57.89150	1500.41394	2268.03125	58.40577	1516.06921	1946.85388	47.49108	
338	1.685	917.16046	1916.81592	47.41325	901.13568	2236.86597	58.91642	1100.80530	2247.59009	57.93333	1500.43213	2268.00708	58.38229	1516.09070	1946.85156	47.46878	
339	1.690	917.13580	1916.79858	47.44286	901.11664	2236.87598	58.98938	1100.82251	2247.60059	57.90299	1500.36804	2267.99194	58.47104	1516.05798	1946.82031	47.51303	
340	1.695	917.04285	1916.77930	47.50056	901.07104	2236.85181	59.07471	1100.77844	2247.56421	58.00519	1500.28564	2267.96167	58.56164	1515.95129	1946.82471	47.56850	
341	1.700	917.03967	1916.79065	47.52041	901.20166	2236.78174	58.97109	1100.67419	2247.54541	58.07861	1500.28357	2267.97681	58.50048	1515.94995	1946.80627	47.55949	
342	1.705	916.98029	1916.78015	47.56195	901.07355	2236.87964	59.03551	1100.74146	2247.56543	58.01902	1500.19373	2267.93433	58.62209	1515.94470	1946.80603	47.55174	
